<?xml version="1.0" encoding="UTF-8"?>
<svg id="Layer_3" data-name="Layer 3" xmlns="http://www.w3.org/2000/svg" viewBox="0 0 532.8 532.8">
  <defs>
    <style>
      .cls-1 {
        fill: #231f20;
      }

      .cls-2 {
        fill: #c33d32;
      }

      .cls-3 {
        stroke: #bcbec0;
        stroke-width: .55px;
      }

      .cls-3, .cls-4, .cls-5 {
        stroke-miterlimit: 10;
      }

      .cls-3, .cls-4, .cls-5, .cls-6 {
        fill: none;
      }

      .cls-4 {
        stroke: #dbdddd;
      }

      .cls-4, .cls-5 {
        stroke-width: 5px;
      }

      .cls-5 {
        stroke: #ebab21;
      }

      .cls-6 {
        stroke: #fff;
        stroke-linecap: round;
        stroke-linejoin: round;
        stroke-width: 4.42px;
      }

      .cls-7 {
        fill: #ebab21;
      }
    </style>
  </defs>
  <g>
    <path class="cls-1" d="M338.7,485.48l-5.88-8.33,2.01-.68,4.25,6.44-.54-7.69,2.03-.68.38,10.19-2.25.76Z"/>
    <path class="cls-1" d="M344.67,483.42l-3.43-9.15,5.24-1.97.6,1.61-3.4,1.28.79,2.1,3.31-1.24.6,1.59-3.31,1.24.84,2.25,3.4-1.28.6,1.6-5.24,1.97Z"/>
    <path class="cls-1" d="M351.09,470.25c1.57-.65,2.91-.1,3.86.82l-1.2,1.29c-.55-.52-1.25-.8-1.99-.49-1.15.48-1.49,1.93-.69,3.87.8,1.94,2.06,2.73,3.21,2.26.61-.25,1-.7,1.16-1.11l-.57-1.38-1.71.7-.65-1.57,3.41-1.41,1.51,3.67c-.39,1.21-1.17,2.16-2.5,2.71-2.29.94-4.59-.29-5.75-3.1-1.16-2.82-.4-5.3,1.89-6.25Z"/>
    <path class="cls-1" d="M359.63,477.43l-4.03-8.9,5.1-2.31.71,1.56-3.31,1.5.92,2.04,3.22-1.46.7,1.55-3.22,1.46.99,2.19,3.31-1.5.71,1.56-5.1,2.31Z"/>
    <path class="cls-1" d="M367.67,473.7l-3.55-7.22-1.96.96-.76-1.55,5.67-2.78.76,1.55-1.95.96,3.55,7.22-1.76.87Z"/>
    <path class="cls-1" d="M376.56,469.15l-1.22-1.33-2.82,1.49.41,1.75-1.8.95-2-10,2.1-1.11,7.13,7.29-1.8.95ZM370.99,463.01l1.07,4.6,2.12-1.12-3.2-3.48Z"/>
    <path class="cls-1" d="M379.29,467.65l-4.86-8.47,1.7-.98,4,6.97,2.85-1.63.86,1.5-4.55,2.61Z"/>
  </g>
  <g>
    <path class="cls-1" d="M471.45,372.27l-8.76-4.33,2.48-5.01,1.54.76-1.61,3.25,2.01.99,1.57-3.16,1.52.75-1.57,3.16,3.69,1.83-.87,1.76Z"/>
    <path class="cls-1" d="M476.42,361.87l-3.85-.11-.44.96,3.23,1.47-.82,1.79-8.89-4.06,1.52-3.32c.74-1.63,2.41-2.17,4.05-1.42,1.53.7,1.93,1.87,1.84,2.71h4.27s-.91,1.99-.91,1.99ZM468.61,359.58l-.58,1.27,2.56,1.17.58-1.27c.32-.69,0-1.38-.76-1.73-.79-.36-1.49-.13-1.8.56Z"/>
    <path class="cls-1" d="M477.83,358.69l-9.01-3.79,2.17-5.16,1.58.67-1.41,3.35,2.07.87,1.37-3.26,1.57.66-1.37,3.26,2.22.93,1.41-3.35,1.58.67-2.17,5.16Z"/>
    <path class="cls-1" d="M478.25,350.93c.76-.29,1.47-.92,1.82-1.81.32-.82.04-1.43-.52-1.65-.7-.27-1.25.27-1.93.96-.9.97-2,2.2-3.8,1.5-1.43-.56-2.22-2.15-1.49-4.03.43-1.11,1.16-1.93,2.08-2.37l1.03,1.4c-.73.35-1.25.95-1.51,1.63-.27.68-.04,1.24.51,1.45.61.24,1.15-.28,1.8-.97.92-.99,2.08-2.2,3.88-1.5,1.6.62,2.35,2.17,1.58,4.16-.54,1.38-1.38,2.22-2.38,2.66l-1.06-1.45Z"/>
    <path class="cls-1" d="M484.87,340.54l-3.92-1.38-1.07,3.05,3.92,1.38-.65,1.85-9.22-3.24.65-1.85,3.66,1.29,1.07-3.05-3.66-1.29.66-1.87,9.22,3.24-.66,1.87Z"/>
    <path class="cls-1" d="M487.05,333.92l-9.36-2.81,1.61-5.36,1.64.49-1.05,3.48,2.15.65,1.02-3.38,1.63.49-1.02,3.38,3.94,1.19-.57,1.88Z"/>
    <path class="cls-1" d="M490.22,322.77l-3.81.54-.27,1.02,3.43.91-.5,1.9-9.45-2.5.93-3.53c.46-1.73,2.01-2.55,3.75-2.09,1.63.43,2.22,1.51,2.27,2.36l4.21-.72-.56,2.11ZM482.12,321.83l-.36,1.35,2.72.72.36-1.35c.19-.74-.23-1.36-1.04-1.58-.84-.22-1.49.12-1.68.86Z"/>
    <path class="cls-1" d="M481.59,317.06l.43-1.93,6.27,1.4c1.13.25,1.88-.15,2.11-1.17.23-1.02-.28-1.7-1.41-1.95l-6.27-1.4.43-1.93,6.25,1.39c2.2.49,3.17,2.1,2.68,4.26-.48,2.16-2.04,3.21-4.24,2.72l-6.25-1.39Z"/>
    <path class="cls-1" d="M493.04,310.26l-9.6-1.82.37-1.93,9.6,1.82-.37,1.93Z"/>
    <path class="cls-1" d="M494,305l-7.94-1.29-.35,2.15-1.71-.28,1.01-6.23,1.71.28-.35,2.14,7.94,1.29-.31,1.94Z"/>
  </g>
  <g>
    <path class="cls-1" d="M414.84,440.35l-6.4-7.38,3.05-2.65c1.32-1.14,2.71-.82,3.58.19.81.93.82,1.97.28,2.72.86-.53,2.08-.24,2.88.68.97,1.12,1.1,2.54-.24,3.7l-3.15,2.73ZM412.53,434.68l1.22-1.05c.53-.46.47-1.05.04-1.54-.43-.5-1.01-.65-1.54-.19l-1.22,1.06,1.51,1.74ZM415.23,437.8l1.27-1.1c.55-.48.55-1.09.05-1.67-.44-.51-1.09-.68-1.66-.19l-1.27,1.1,1.61,1.86Z"/>
    <path class="cls-1" d="M424.52,431.69l-3.51-1.57-.77.72,2.42,2.59-1.43,1.34-6.67-7.14,2.67-2.49c1.31-1.22,3.05-1.09,4.28.23,1.15,1.23,1.08,2.46.67,3.2l3.94,1.63-1.59,1.49ZM418.18,426.59l-1.02.95,1.92,2.05,1.02-.95c.56-.52.53-1.28-.04-1.89-.59-.63-1.32-.69-1.88-.17Z"/>
    <path class="cls-1" d="M422.71,419.56c1.81-1.82,4.41-1.39,6.47.66,2.07,2.05,2.52,4.64.71,6.46-1.8,1.81-4.39,1.39-6.46-.66-2.06-2.04-2.52-4.64-.72-6.45ZM423.95,420.78c-.94.95-.43,2.46.91,3.79,1.32,1.31,2.86,1.82,3.8.87.95-.96.43-2.5-.89-3.81-1.34-1.33-2.87-1.81-3.82-.85Z"/>
    <path class="cls-1" d="M437.71,418.12l-5.67-3.43,3.99,5.29-1.38,1.52-8.75-4.91,1.42-1.56,5.89,3.63-4.11-5.6,1.03-1.14,5.99,3.52-4.21-5.49,1.42-1.57,5.76,8.21-1.38,1.52Z"/>
    <path class="cls-1" d="M444.72,409.89l-6.93-1.38,4.81,3.96-1.24,1.51-7.55-6.21,1.27-1.54,6.66,1.32-4.62-3.8,1.25-1.52,7.55,6.21-1.19,1.45Z"/>
    <path class="cls-1" d="M447.16,406.86l-7.77-5.92,3.39-4.45,1.36,1.04-2.2,2.89,1.78,1.36,2.14-2.81,1.35,1.03-2.14,2.81,1.91,1.46,2.2-2.89,1.36,1.04-3.39,4.45Z"/>
    <path class="cls-1" d="M451.62,400.96l-7.99-5.61,1.81-2.58c1.55-2.2,4.09-2.31,6.44-.67,2.35,1.65,3.11,4.06,1.55,6.28l-1.81,2.58ZM451.34,398.36l.68-.97c.83-1.19.23-2.57-1.29-3.64-1.58-1.11-3.03-1.19-3.88.02l-.68.97,5.17,3.63Z"/>
  </g>
  <g>
    <path class="cls-1" d="M434.99,439.75l-6.88-6.94,3.97-3.94,1.21,1.22-2.58,2.56,1.58,1.59,2.51-2.49,1.2,1.21-2.51,2.49,2.9,2.92-1.39,1.38Z"/>
    <path class="cls-1" d="M443.09,431.48l-3.6-1.35-.73.77,2.58,2.44-1.35,1.43-7.1-6.72,2.51-2.65c1.23-1.3,2.98-1.28,4.29-.04,1.23,1.16,1.23,2.39.87,3.16l4.04,1.38-1.5,1.59ZM436.43,426.78l-.96,1.01,2.04,1.93.96-1.01c.52-.55.45-1.31-.16-1.88-.63-.59-1.37-.6-1.89-.05Z"/>
    <path class="cls-1" d="M438.23,422.36l1.31-1.49,4.82,4.24c.87.76,1.72.77,2.41,0,.69-.78.57-1.63-.3-2.39l-4.82-4.24,1.31-1.49,4.81,4.23c1.69,1.49,1.76,3.36.3,5.03-1.46,1.66-3.33,1.83-5.02.34l-4.81-4.23Z"/>
    <path class="cls-1" d="M451.55,421.92l-7.51-6.26,1.26-1.51,7.51,6.26-1.26,1.51Z"/>
    <path class="cls-1" d="M454.91,417.82l-6.29-5.01-1.36,1.71-1.35-1.08,3.93-4.94,1.35,1.08-1.35,1.7,6.29,5-1.22,1.54Z"/>
  </g>
  <g>
    <path class="cls-1" d="M244.61,495.87l.79-9.75,5.58.45-.14,1.71-3.62-.29-.18,2.24,3.52.29-.14,1.69-3.52-.28-.33,4.11-1.96-.16Z"/>
    <path class="cls-1" d="M251.41,496.39l.54-9.76,1.96.11-.44,8.03,3.28.18-.1,1.73-5.24-.29Z"/>
    <path class="cls-1" d="M261.46,486.9c2.56.07,4.03,2.26,3.95,5.16-.08,2.91-1.66,5.01-4.22,4.94-2.55-.07-4.01-2.25-3.94-5.16.08-2.9,1.66-5.01,4.21-4.94ZM261.41,488.64c-1.33-.04-2.09,1.37-2.14,3.26-.05,1.86.63,3.33,1.96,3.36,1.35.04,2.12-1.39,2.17-3.25.05-1.89-.64-3.33-1.99-3.36Z"/>
    <path class="cls-1" d="M271.1,496.91l-1.52-3.53h-1.05s.02,3.55.02,3.55h-1.96s-.07-9.75-.07-9.75l3.65-.02c1.79-.01,2.98,1.27,2.99,3.07.01,1.68-.88,2.54-1.68,2.81l1.8,3.87-2.18.02ZM269.89,488.86h-1.39s.02,2.82.02,2.82h1.39c.76-.02,1.26-.59,1.25-1.42,0-.86-.51-1.4-1.27-1.4Z"/>
    <path class="cls-1" d="M280.34,496.62l-.53-1.72-3.19.14-.38,1.76-2.04.09,2.48-9.89,2.37-.1,3.32,9.64-2.04.09ZM277.95,488.68l-1.01,4.62,2.4-.1-1.4-4.52Z"/>
    <path class="cls-1" d="M283.47,496.45l-.73-9.74,1.96-.15.6,8.02,3.27-.25.13,1.72-5.23.39Z"/>
  </g>
  <g>
    <path class="cls-1" d="M158.36,470.26l1.93-6.34-4.15,5.17-1.81-.96,2.61-9.68,1.86.99-2.07,6.6,4.41-5.36,1.36.72-1.94,6.67,4.28-5.43,1.86.99-6.54,7.59-1.81-.96Z"/>
    <path class="cls-1" d="M170.63,465.28c2.32,1.1,2.76,3.7,1.52,6.32-1.25,2.63-3.55,3.91-5.86,2.8-2.3-1.1-2.76-3.68-1.5-6.31,1.25-2.62,3.55-3.91,5.85-2.81ZM169.88,466.85c-1.2-.57-2.46.4-3.27,2.11-.8,1.68-.78,3.3.43,3.87,1.22.58,2.5-.41,3.3-2.09.81-1.71.76-3.3-.45-3.88Z"/>
    <path class="cls-1" d="M178.68,468.92c2.36,1.01,2.9,3.6,1.76,6.26-1.15,2.68-3.4,4.04-5.76,3.03-2.34-1.01-2.9-3.58-1.74-6.26,1.15-2.67,3.4-4.04,5.74-3.03ZM177.99,470.52c-1.22-.53-2.45.49-3.19,2.23-.74,1.71-.65,3.33.57,3.85,1.24.53,2.49-.51,3.22-2.22.75-1.74.64-3.33-.6-3.87Z"/>
    <path class="cls-1" d="M179.87,480.21l3.53-9.12,2.94,1.14c2.52.97,3.23,3.42,2.2,6.1-1.04,2.68-3.2,4-5.73,3.02l-2.94-1.14ZM182.33,479.31l1.11.43c1.35.52,2.56-.39,3.23-2.13.7-1.8.43-3.23-.95-3.76l-1.11-.43-2.28,5.89Z"/>
    <path class="cls-1" d="M189.61,483.88l1.33-3.8-.95-6.42,2.05.72.43,4.31,3.03-3.1,2.05.72-4.75,4.42-1.33,3.8-1.85-.65Z"/>
  </g>
  <g>
    <path class="cls-1" d="M86.79,407.11c-.13.8.06,1.74.66,2.48.55.68,1.22.75,1.69.37.58-.47.39-1.22.12-2.15-.4-1.26-.91-2.82.6-4.04,1.2-.97,2.96-.85,4.23.72.75.92,1.09,1.96,1.02,2.98l-1.73.19c.07-.81-.2-1.55-.66-2.12-.46-.57-1.06-.65-1.51-.29-.51.41-.33,1.13-.06,2.05.4,1.29.87,2.89-.63,4.11-1.33,1.08-3.05.96-4.39-.71-.93-1.15-1.23-2.3-1.12-3.39l1.78-.2Z"/>
    <path class="cls-1" d="M89.28,414.27l7.4-6.38,2.35,2.73c1.31,1.52.87,3.23-.39,4.33-1.27,1.09-3.01,1.26-4.32-.26l-1.07-1.24-2.69,2.32-1.28-1.49ZM97.58,411.56l-.92-1.06-2.13,1.84.92,1.07c.49.57,1.25.57,1.88.02.64-.55.74-1.3.25-1.86Z"/>
    <path class="cls-1" d="M94.37,420.12l7.25-6.55,1.32,1.46-7.25,6.55-1.32-1.46Z"/>
    <path class="cls-1" d="M100.23,419.35c2.14-2.04,4.76-2.32,6.49-.51,1.31,1.38,1.05,2.87.57,4l-1.64-.68c.36-.75.36-1.54-.2-2.12-.89-.94-2.44-.55-3.83.77-1.39,1.32-1.85,2.85-.97,3.79.58.6,1.41.59,2.19.24l.61,1.66c-1.18.46-2.73.7-4.07-.71-1.73-1.82-1.31-4.42.84-6.45Z"/>
    <path class="cls-1" d="M102.74,429.01l6.86-6.96,3.98,3.93-1.2,1.22-2.59-2.55-1.57,1.6,2.51,2.48-1.19,1.21-2.51-2.48-1.69,1.71,2.59,2.55-1.2,1.22-3.98-3.93Z"/>
  </g>
  <g>
    <path class="cls-1" d="M42.7,322.52l5.27-4.71-6.05,1.46-.46-1.89,9.5-2.3.47,1.94-5.06,4.52,5.81-1.41.46,1.91-9.5,2.3-.44-1.82Z"/>
    <path class="cls-1" d="M53.12,323.88l.54,1.9-6.18,1.74c-1.11.31-1.58,1.03-1.3,2.03.28,1,1.06,1.36,2.17,1.05l6.18-1.74.54,1.9-6.16,1.74c-2.17.61-3.78-.35-4.39-2.48-.6-2.13.27-3.79,2.44-4.4l6.16-1.74Z"/>
    <path class="cls-1" d="M46.78,337.01l7.66-2.45-.66-2.08,1.65-.53,1.92,6.01-1.65.52-.66-2.06-7.66,2.44-.6-1.87Z"/>
    <path class="cls-1" d="M49.2,344.27l7.58-2.69-.73-2.06,1.63-.58,2.11,5.95-1.63.58-.73-2.04-7.58,2.69-.66-1.85Z"/>
    <path class="cls-1" d="M52.11,352.15l3.75-1.48,4.23-4.92.8,2.02-2.98,3.15,4.33.26.8,2.02-6.45-.7-3.75,1.48-.72-1.83Z"/>
  </g>
  <g>
    <path class="cls-1" d="M203.38,54.59l-2.43-2.98-1.01.3,1,3.4-1.88.55-2.75-9.37,3.5-1.03c1.71-.5,3.22.4,3.72,2.13.47,1.62-.14,2.68-.84,3.16l2.79,3.22-2.09.61ZM200,47.19l-1.33.39.79,2.7,1.33-.39c.73-.21,1.05-.9.81-1.7-.24-.83-.87-1.21-1.6-.99Z"/>
    <path class="cls-1" d="M207.8,43.11c2.49-.63,4.49,1.08,5.21,3.89.72,2.83-.23,5.27-2.72,5.91-2.47.63-4.47-1.07-5.19-3.9-.71-2.81.23-5.27,2.7-5.9ZM208.23,44.8c-1.29.33-1.64,1.88-1.17,3.71.46,1.8,1.51,3.03,2.8,2.7,1.31-.33,1.66-1.92,1.2-3.72-.47-1.83-1.53-3.03-2.83-2.7Z"/>
    <path class="cls-1" d="M220.43,50.37l-.81-1.61-3.12.68-.08,1.8-1.99.43.77-10.17,2.32-.5,4.9,8.94-1.99.43ZM216.72,42.96l-.21,4.72,2.35-.51-2.14-4.21Z"/>
    <path class="cls-1" d="M223.35,47.14c.64.49,1.56.78,2.49.61.86-.16,1.24-.72,1.13-1.31-.13-.74-.88-.93-1.83-1.14-1.3-.26-2.92-.56-3.26-2.46-.27-1.51.68-3.01,2.67-3.37,1.17-.21,2.25-.02,3.11.54l-.66,1.61c-.68-.44-1.46-.57-2.18-.44-.72.13-1.08.61-.98,1.19.12.65.84.83,1.77,1.04,1.33.27,2.96.63,3.3,2.53.31,1.69-.62,3.14-2.73,3.52-1.46.26-2.61-.02-3.51-.65l.68-1.66Z"/>
    <path class="cls-1" d="M232.36,48.23l-1.18-7.96-2.16.32-.25-1.71,6.25-.93.26,1.71-2.15.32,1.18,7.96-1.94.29Z"/>
    <path class="cls-1" d="M239.99,37.43c.77-.09,1.47.48,1.56,1.25.09.79-.47,1.48-1.24,1.57-.77.09-1.48-.47-1.57-1.25-.09-.77.48-1.49,1.25-1.57ZM240.08,38.22c-.34.04-.59.36-.55.7.04.35.36.59.7.55.35-.04.58-.35.54-.7-.04-.33-.33-.6-.68-.56Z"/>
  </g>
  <g>
    <path class="cls-1" d="M294.86,42.41c.43-2.93,2.31-4.77,4.79-4.4,1.88.28,2.59,1.61,2.92,2.8l-1.71.47c-.18-.81-.66-1.43-1.46-1.55-1.27-.19-2.26,1.07-2.54,2.97-.28,1.9.3,3.39,1.58,3.58.83.12,1.48-.4,1.87-1.16l1.51.93c-.65,1.09-1.72,2.23-3.63,1.95-2.48-.36-3.75-2.67-3.32-5.6Z"/>
    <path class="cls-1" d="M307.82,49.45l-.13-1.8-3.14-.57-.76,1.63-2-.37,4.61-9.1,2.34.43,1.1,10.14-2-.37ZM307.24,41.18l-2,4.28,2.37.43-.36-4.72Z"/>
    <path class="cls-1" d="M311.08,45.11c.63-2.89,2.64-4.6,5.09-4.06,1.86.41,2.48,1.79,2.72,3l-1.74.35c-.12-.82-.56-1.47-1.35-1.65-1.26-.28-2.33.92-2.74,2.79-.41,1.88.07,3.4,1.33,3.68.82.18,1.5-.3,1.95-1.03l1.44,1.03c-.72,1.04-1.87,2.11-3.76,1.7-2.45-.54-3.56-2.92-2.93-5.82Z"/>
    <path class="cls-1" d="M323.51,53.04v-1.8s-3.11-.79-3.11-.79l-.87,1.58-1.97-.5,5.23-8.75,2.3.59.39,10.19-1.97-.5ZM323.51,44.75l-2.3,4.13,2.33.59-.03-4.73Z"/>
    <path class="cls-1" d="M332.38,45.2c2.46.72,3.32,3.22,2.5,6-.82,2.8-2.88,4.42-5.34,3.7-2.45-.72-3.31-3.2-2.49-6,.81-2.78,2.88-4.42,5.33-3.71ZM331.89,46.87c-1.28-.37-2.37.79-2.9,2.6-.52,1.79-.24,3.38,1.04,3.75,1.29.38,2.41-.81,2.93-2.59.53-1.81.23-3.38-1.07-3.76Z"/>
  </g>
  <g>
    <path class="cls-1" d="M381.5,78.19l.51-1.73-2.74-1.64-1.29,1.26-1.75-1.05,7.51-6.88,2.03,1.22-2.54,9.87-1.75-1.05ZM383.87,70.25l-3.38,3.3,2.06,1.24,1.32-4.54Z"/>
    <path class="cls-1" d="M386.07,75.26c1.61-2.49,4.08-3.38,6.19-2.02,1.6,1.03,1.69,2.54,1.5,3.76l-1.76-.28c.18-.81-.01-1.58-.69-2.01-1.08-.7-2.5.04-3.55,1.65-1.04,1.61-1.13,3.21-.05,3.91.7.45,1.52.25,2.19-.28l.99,1.47c-1.04.72-2.49,1.32-4.12.27-2.11-1.36-2.31-3.99-.71-6.47Z"/>
    <path class="cls-1" d="M390.67,84.09l5.51-8.07,1.62,1.11-5.51,8.07-1.62-1.11Z"/>
    <path class="cls-1" d="M393.85,86.26l5.71-7.92,2.55,1.84c2.18,1.58,2.26,4.12.58,6.45-1.68,2.33-4.1,3.05-6.3,1.47l-2.55-1.84ZM396.46,86l.96.69c1.18.85,2.57.27,3.66-1.24,1.13-1.57,1.23-3.01.03-3.88l-.96-.69-3.69,5.12Z"/>
    <path class="cls-1" d="M401.03,91.51l5.93-7.76,1.56,1.19-5.93,7.77-1.56-1.19Z"/>
    <path class="cls-1" d="M405.24,94.77l5.03-6.28-1.71-1.36,1.08-1.35,4.93,3.95-1.08,1.35-1.69-1.35-5.03,6.28-1.53-1.23Z"/>
    <path class="cls-1" d="M411.24,99.71l2.63-3.05,1.46-6.32,1.64,1.41-1.17,4.17,3.95-1.78,1.64,1.41-6.03,2.39-2.63,3.06-1.49-1.28Z"/>
  </g>
  <g>
    <path class="cls-7" d="M24.22,403.51c3.78-2.24,7.64-1.69,9.59,1.61,1.58,2.67.55,4.86-.62,6.35l-2.52-1.84c.78-.89,1.07-1.96.49-2.94-.87-1.46-2.96-1.4-5.13-.12-2.17,1.28-3.23,3.09-2.36,4.55.59,1,1.78,1.23,2.94.91l.41,3.11c-1.86.32-4.42.24-6.01-2.45-1.95-3.3-.56-6.95,3.2-9.18Z"/>
    <path class="cls-7" d="M28.97,415.28c2.44-1.59,5.5-1.56,7.27,1.14,1.77,2.7.59,5.54-1.85,7.13-2.43,1.59-5.53,1.56-7.3-1.15-1.77-2.71-.56-5.53,1.88-7.13ZM32.63,420.87c1.26-.83,1.96-1.93,1.3-2.94-.65-.99-1.94-.79-3.2.03-1.28.84-1.98,1.94-1.33,2.93.66,1.01,1.95.81,3.23-.03Z"/>
    <path class="cls-7" d="M37.91,437.42l5.43-3.96c.61-.44.78-.94.35-1.53-.44-.61-1.27-.68-1.8-.61l-5.5,4.01-1.83-2.51,5.43-3.96c.57-.42.79-.92.34-1.55-.43-.59-1.25-.66-1.79-.59l-5.5,4.01-1.84-2.52,8.41-6.13,1.84,2.52-1.05.76c.77-.08,2.22.41,3.01,1.49.76,1.04.88,2.16.08,3.14,1.01-.12,2.47.36,3.27,1.45.97,1.32.93,2.71-.63,3.85l-6.37,4.65-1.84-2.53Z"/>
    <path class="cls-7" d="M40.3,446.92l-1.97-2.43,11.18-9.04,1.96,2.43-.96.77c1.21-.15,2.16.31,2.77,1.06,1.48,1.83.91,4.28-1.79,6.46-2.66,2.15-5.23,2.23-6.71.41-.6-.74-.87-1.76-.46-2.93l-4.04,3.27ZM50.48,440.63c-.35-.44-1.04-.71-1.69-.58l-2.72,2.19c-.25.59-.16,1.35.19,1.78.72.89,1.97.68,3.22-.33,1.24-1,1.7-2.18.98-3.07Z"/>
    <path class="cls-7" d="M48.53,450.69l10.92-9.34,2.03,2.37-10.92,9.34-2.03-2.37Z"/>
    <path class="cls-7" d="M62.71,450.7c1.96,2.18,1.44,4.97-1.04,7.21l-.64.58-4.29-4.75c-.73.8-.93,1.97.04,3.04.5.56,1.32.95,2.1.98l-.47,2.28c-1.39-.06-2.76-.84-3.7-1.88-2.02-2.24-1.78-5.19.68-7.41,2.24-2.02,5.29-2.28,7.31-.04ZM58.28,452.32l2.31,2.56c.59-.59,1.14-1.6.27-2.56-.84-.93-1.91-.51-2.58,0Z"/>
    <path class="cls-7" d="M67.3,470.9l4.77-4.74c.54-.53.63-1.05.11-1.57-.53-.53-1.35-.48-1.87-.32l-4.83,4.8-2.19-2.2,4.77-4.74c.5-.5.64-1.03.1-1.58-.52-.52-1.34-.46-1.86-.31l-4.83,4.8-2.2-2.22,7.38-7.33,2.2,2.22-.92.91c.75-.19,2.25.07,3.19,1.02.91.92,1.2,2,.55,3.09.97-.27,2.5-.02,3.45.94,1.15,1.16,1.33,2.53-.04,3.9l-5.59,5.56-2.2-2.22Z"/>
    <path class="cls-7" d="M81.82,469.9c2.16,1.98,1.91,4.81-.34,7.28l-.58.63-4.73-4.32c-.65.87-.73,2.05.34,3.02.56.51,1.41.82,2.19.77l-.25,2.31c-1.39.08-2.83-.57-3.87-1.52-2.23-2.04-2.27-4.99-.03-7.44,2.03-2.23,5.05-2.78,7.28-.74ZM77.56,471.94l2.55,2.33c.54-.65.98-1.71.02-2.58-.92-.84-1.95-.32-2.57.25Z"/>
    <path class="cls-7" d="M83.94,485.93l4.24-5.02c.61-.72.52-1.31-.06-1.8-.59-.5-1.37-.42-1.94-.2l-4.4,5.2-2.39-2.02,6.72-7.95,2.39,2.02-.84.99c.9-.26,2.29-.1,3.34.79,1.53,1.29,1.44,2.77.36,4.05l-5.03,5.96-2.39-2.02Z"/>
    <path class="cls-7" d="M90.08,487.48l3.1-3.92-1.03-.82,1.69-2.13,1.03.82,1.77-2.23,2.45,1.94-1.77,2.23,1.32,1.04-1.69,2.13-1.32-1.04-2.62,3.31c-.38.47-.42.91-.05,1.2.24.19.52.28.71.26l-1.06,2.24c-.5.01-1.26-.25-2.05-.88-1.57-1.24-1.7-2.61-.48-4.15Z"/>
    <path class="cls-7" d="M97.78,496.81l.61-.81c-.91.29-2.11.02-2.96-.61-1.31-.98-1.9-2.89-.55-4.71,1.39-1.87,3.28-1.7,4.59-.72.86.64,1.51,1.66,1.49,2.58l.72-.97c.58-.78.43-1.7-.51-2.39-.69-.52-1.67-.76-2.7-.67l.37-2.33c1.58-.17,3.22.51,4.33,1.34,1.9,1.41,2.87,3.4,1.2,5.65l-4.09,5.5-2.49-1.85ZM99.96,493.87c.08-.61-.24-1.2-.72-1.56-.64-.48-1.4-.43-1.9.25-.52.69-.34,1.44.3,1.91.48.36,1.14.5,1.7.24l.63-.85Z"/>
    <path class="cls-7" d="M102.03,499.89l5.95-8.54,2.56,1.79-.76,1.1c.94-.4,2.34-.31,3.19.28l-1.72,2.48c-.12-.13-.29-.3-.5-.45-.62-.43-1.61-.63-2.32-.36l-3.83,5.5-2.57-1.78Z"/>
    <path class="cls-7" d="M108.03,505.63c.08.18.3.37.5.5.45.29.87.36,1.23.08l.56-.43,2.8-10.82,2.77,1.79-2.09,6.59,5.2-4.57,2.77,1.79-9.89,7.85c-1.76,1.4-3.09,1.16-4.65.17-.29-.19-.85-.63-1.05-.88l1.85-2.06Z"/>
  </g>
  <g>
    <path class="cls-7" d="M18.83,447.24l1.5-1.75-2.59-3.58-2.13.88-2.11-2.92,14.14-4.99,2.46,3.41-9.16,11.87-2.11-2.92ZM26.39,438.39l-5.82,2.32,1.8,2.48,4.03-4.8Z"/>
    <path class="cls-7" d="M24.17,449.85l3.95-3.07-.81-1.04,2.14-1.67.81,1.04,2.25-1.75,1.92,2.47-2.25,1.75,1.03,1.33-2.14,1.67-1.03-1.33-3.34,2.59c-.48.37-.62.78-.33,1.16.18.24.44.39.62.42l-1.56,1.93c-.49-.11-1.16-.54-1.78-1.34-1.23-1.58-1.03-2.94.52-4.14Z"/>
    <path class="cls-7" d="M28.51,455.36l3.87-3.16-.83-1.02,2.1-1.72.83,1.02,2.2-1.8,1.98,2.42-2.2,1.8,1.06,1.3-2.1,1.72-1.06-1.3-3.27,2.67c-.47.38-.6.8-.3,1.16.19.23.45.38.63.4l-1.51,1.96c-.5-.1-1.17-.52-1.81-1.3-1.27-1.55-1.1-2.91.42-4.15Z"/>
    <path class="cls-7" d="M30.59,462.11l7.89-6.79,2.04,2.37-1.01.87c1-.15,2.35.28,3.02,1.07l-2.29,1.97c-.08-.16-.2-.37-.37-.56-.49-.57-1.41-1.01-2.16-.93l-5.08,4.37-2.04-2.37Z"/>
    <path class="cls-7" d="M35.25,467.48l7.75-6.95,2.09,2.33-7.74,6.95-2.09-2.33ZM45.17,458.28c.74-.66,1.88-.62,2.56.14.66.74.58,1.88-.15,2.54-.75.68-1.88.62-2.54-.12-.68-.75-.61-1.88.14-2.55Z"/>
    <path class="cls-7" d="M38.86,471.52l10.42-9.9,2.15,2.27-3.76,3.58c1.18-.26,2.19.15,2.84.83,1.62,1.7,1.19,4.28-1.25,6.6-2.53,2.41-5.07,2.62-6.67.93-.65-.69-.96-1.7-.69-2.88l-.89.85-2.15-2.26ZM43.53,471.39c-.21.62-.05,1.36.35,1.78.77.81,2.01.52,3.19-.59,1.16-1.1,1.51-2.32.73-3.14-.4-.42-1.14-.61-1.76-.44l-2.51,2.39Z"/>
    <path class="cls-7" d="M51.24,484.14l.87-.9c-.91.17-2.26-.09-3.26-1.07-1.44-1.4-1.26-2.82-.09-4.02l5.47-5.62,2.24,2.18-4.59,4.73c-.66.68-.61,1.24-.05,1.78.54.52,1.32.53,1.91.35l4.76-4.9,2.23,2.16-7.25,7.46-2.22-2.16Z"/>
    <path class="cls-7" d="M57.51,486.34l3.37-3.69-.97-.89,1.83-2.01.97.89,1.92-2.1,2.31,2.1-1.91,2.1,1.24,1.13-1.83,2.01-1.24-1.13-2.85,3.12c-.41.45-.48.88-.13,1.2.22.2.5.31.68.3l-1.21,2.16c-.5-.02-1.24-.34-1.98-1.02-1.48-1.35-1.51-2.72-.19-4.17Z"/>
    <path class="cls-7" d="M70.76,487.45c2.22,1.91,2.06,4.75-.11,7.28l-.56.65-4.86-4.17c-.62.89-.67,2.07.43,3.01.57.49,1.43.78,2.21.7l-.17,2.32c-1.38.12-2.85-.48-3.91-1.4-2.29-1.96-2.42-4.92-.27-7.44,1.96-2.29,4.95-2.93,7.25-.97ZM66.57,489.62l2.62,2.24c.51-.67.92-1.74-.06-2.58-.95-.81-1.96-.26-2.56.33Z"/>
    <path class="cls-7" d="M71.22,497.38c.15.92.75,2.17,1.54,2.8.67.54,1.21.55,1.53.15.32-.4-.04-.99-.59-1.74-.91-1.25-2.22-2.96-.66-4.91,1.09-1.36,3.14-1.69,5.21-.03,1.18.94,1.89,2.2,2.18,3.42l-2.25.88c-.08-.73-.55-1.76-1.39-2.43-.52-.42-1.07-.49-1.35-.14-.3.37,0,.89.57,1.64.94,1.28,2.29,3.07.69,5.07-1.22,1.53-3.38,1.61-5.38,0-1.4-1.12-2.27-2.58-2.41-3.82l2.31-.89Z"/>
  </g>
  <g>
    <path class="cls-1" d="M437.66,127.15l7.69-6.04,2.5,3.18c1.08,1.37.68,2.75-.37,3.57-.97.76-2.01.72-2.73.15.49.88.13,2.09-.82,2.85-1.17.91-2.59.97-3.69-.42l-2.58-3.29ZM440.19,127.67l1.04,1.33c.45.58,1.07.6,1.66.13.53-.42.73-1.06.27-1.65l-1.04-1.33-1.94,1.52ZM443.44,125.11l1,1.27c.43.55,1.02.52,1.54.11.52-.41.7-.98.27-1.53l-1-1.27-1.81,1.42Z"/>
    <path class="cls-1" d="M442.78,133.77l7.85-5.82,1.17,1.58-7.85,5.82-1.17-1.58Z"/>
    <path class="cls-1" d="M445.93,138.08l6.57-4.65-1.26-1.78,1.41-1,3.65,5.16-1.41,1-1.25-1.77-6.57,4.65-1.14-1.6Z"/>
    <path class="cls-1" d="M450,143.97l6.7-4.45-1.21-1.82,1.44-.96,3.5,5.26-1.44.96-1.2-1.81-6.7,4.45-1.09-1.64Z"/>
    <path class="cls-1" d="M452.89,148.36l8.29-5.17,2.96,4.75-1.45.91-1.92-3.08-1.9,1.19,1.87,3-1.44.9-1.87-3-2.04,1.27,1.92,3.08-1.45.91-2.96-4.75Z"/>
    <path class="cls-1" d="M458.95,158.41l2.32-3.07-.53-.91-3.07,1.78-.98-1.7,8.46-4.9,1.83,3.16c.9,1.55.38,3.22-1.19,4.12-1.46.85-2.64.5-3.27-.07l-2.47,3.48-1.09-1.89ZM465.35,153.37l-.7-1.2-2.43,1.41.7,1.2c.38.66,1.13.8,1.85.39.75-.43.97-1.14.59-1.8Z"/>
    <path class="cls-1" d="M463.19,166.16l3.93-5.87-5.5,2.92-.91-1.72,8.63-4.58.93,1.76-3.77,5.64,5.28-2.8.92,1.73-8.63,4.58-.88-1.66Z"/>
    <path class="cls-1" d="M464.86,169.41l8.79-4.26,2.44,5.04-1.54.75-1.59-3.27-2.02.98,1.54,3.18-1.53.74-1.54-3.18-2.16,1.05,1.59,3.27-1.54.75-2.44-5.04Z"/>
    <path class="cls-1" d="M470.45,175.08c-.33.74-.39,1.7,0,2.57.36.8.99,1.04,1.54.79.68-.3.69-1.08.68-2.05-.06-1.32-.15-2.97,1.62-3.75,1.41-.62,3.09-.06,3.91,1.79.48,1.09.55,2.18.21,3.15l-1.72-.26c.27-.76.21-1.55-.09-2.22-.3-.67-.85-.9-1.39-.67-.6.27-.61,1.01-.59,1.96.06,1.35.09,3.02-1.68,3.81-1.57.7-3.2.14-4.07-1.82-.6-1.35-.6-2.54-.21-3.57l1.77.27Z"/>
    <path class="cls-1" d="M473.39,181.82c-.35.73-.44,1.68-.09,2.56.33.82.95,1.07,1.51.85.69-.28.73-1.05.75-2.02-.01-1.32-.04-2.97,1.75-3.69,1.43-.57,3.08.05,3.84,1.93.44,1.1.47,2.19.1,3.15l-1.71-.32c.3-.75.26-1.54-.01-2.22-.27-.68-.82-.93-1.36-.71-.61.25-.65.99-.66,1.94,0,1.35-.02,3.02-1.81,3.74-1.59.64-3.19.02-3.99-1.96-.55-1.37-.51-2.56-.08-3.57l1.76.33Z"/>
  </g>
  <g>
    <path class="cls-1" d="M479.73,208.18l1.55-.91-.87-3.07-1.8.04-.56-1.96,10.2.12.65,2.28-8.61,5.46-.56-1.96ZM486.9,204.02l-4.73.09.66,2.31,4.07-2.4Z"/>
    <path class="cls-1" d="M483.11,210.84c-.46.67-.69,1.59-.47,2.52.2.86.78,1.2,1.37,1.06.73-.17.88-.93,1.04-1.89.19-1.31.4-2.94,2.28-3.39,1.5-.35,3.04.51,3.51,2.48.27,1.16.14,2.24-.37,3.13l-1.64-.57c.41-.7.49-1.49.32-2.2-.17-.71-.67-1.05-1.24-.91-.64.15-.78.88-.94,1.82-.19,1.34-.46,2.99-2.35,3.43-1.67.4-3.16-.45-3.66-2.53-.34-1.44-.12-2.61.45-3.54l1.69.59Z"/>
    <path class="cls-1" d="M482.48,219.83l7.89-1.58-.43-2.14,1.7-.34,1.24,6.19-1.7.34-.42-2.13-7.89,1.58-.39-1.93Z"/>
    <path class="cls-1" d="M484.22,229.4l3.25-2.05-.17-1.04-3.5.58-.32-1.94,9.64-1.59.59,3.6c.29,1.76-.79,3.14-2.57,3.44-1.66.27-2.65-.47-3.04-1.22l-3.54,2.38-.36-2.15ZM491.99,226.94l-.23-1.37-2.78.46.23,1.37c.12.75.77,1.15,1.59,1.01.85-.14,1.31-.72,1.18-1.47Z"/>
    <path class="cls-1" d="M484.76,232.99l9.68-1.34.27,1.94-9.68,1.34-.27-1.94Z"/>
    <path class="cls-1" d="M485.87,242.06l5.83-4-6.19.67-.21-1.94,9.72-1.06.22,1.98-5.6,3.84,5.95-.65.21,1.95-9.72,1.06-.2-1.87Z"/>
    <path class="cls-1" d="M496.4,248.69c.12,1.7-.82,2.79-1.99,3.4l-.84-1.54c.67-.36,1.15-.93,1.1-1.74-.09-1.24-1.36-2.02-3.45-1.87-2.09.15-3.24,1.1-3.15,2.34.05.66.35,1.17.69,1.45l1.49-.11-.13-1.84,1.69-.12.26,3.68-3.96.28c-1.02-.75-1.68-1.79-1.79-3.22-.17-2.47,1.72-4.26,4.75-4.48,3.04-.22,5.16,1.29,5.33,3.76Z"/>
    <path class="cls-1" d="M486.8,254.32l9.77-.36.21,5.6-1.71.06-.13-3.63-2.24.08.13,3.53-1.7.06-.13-3.53-2.4.09.13,3.63-1.71.06-.21-5.6Z"/>
    <path class="cls-1" d="M487.06,266.79l6.22-3.35h-6.23s0-1.94,0-1.94l9.77-.02v1.99s-5.97,3.22-5.97,3.22h5.98s0,1.95,0,1.95l-9.77.02v-1.87Z"/>
    <path class="cls-1" d="M491.92,270.17c2.96.1,5,1.77,4.91,4.28-.07,1.9-1.31,2.75-2.46,3.21l-.66-1.65c.79-.27,1.35-.82,1.38-1.62.04-1.29-1.32-2.13-3.24-2.2-1.92-.07-3.34.67-3.38,1.96-.03.83.57,1.43,1.36,1.73l-.76,1.6c-1.15-.52-2.41-1.46-2.34-3.4.09-2.5,2.24-4.03,5.2-3.92Z"/>
    <path class="cls-1" d="M486.57,280.53l4.02.28,5.94-2.61-.15,2.16-4.05,1.55,3.79,2.1-.15,2.16-5.52-3.41-4.02-.28.14-1.96Z"/>
  </g>
  <g>
    <path class="cls-1" d="M57.88,185.67c.76-.28,1.49-.9,1.84-1.79.33-.82.05-1.43-.5-1.66-.69-.28-1.26.25-1.94.94-.91.96-2.03,2.17-3.82,1.45-1.43-.57-2.19-2.18-1.43-4.05.44-1.1,1.18-1.91,2.11-2.34l1.01,1.42c-.74.34-1.26.93-1.53,1.61-.27.68-.06,1.24.49,1.46.61.25,1.15-.27,1.82-.94.93-.98,2.1-2.17,3.9-1.45,1.59.64,2.32,2.2,1.52,4.18-.55,1.37-1.41,2.2-2.42,2.63l-1.04-1.46Z"/>
    <path class="cls-1" d="M65.34,174.76l-6.45-1.53,5.42,3.82-.85,1.87-9.83-2,.87-1.92,6.72,1.65-5.62-4.07.63-1.4,6.78,1.52-5.68-3.94.87-1.92,7.99,6.06-.85,1.87Z"/>
    <path class="cls-1" d="M67.56,170.06l-8.74-4.38,2.51-5,1.53.77-1.63,3.25,2,1.01,1.58-3.16,1.52.76-1.58,3.16,2.15,1.08,1.63-3.25,1.53.77-2.51,5Z"/>
    <path class="cls-1" d="M70.82,163.63l-8.6-4.65,2.66-4.92,1.51.82-1.73,3.2,1.97,1.07,1.68-3.11,1.49.81-1.68,3.1,2.11,1.14,1.73-3.2,1.51.82-2.66,4.92Z"/>
    <path class="cls-1" d="M75.05,155.98l-6.95-4.05-1.1,1.89-1.49-.87,3.18-5.46,1.49.87-1.09,1.87,6.95,4.05-.99,1.7Z"/>
    <path class="cls-1" d="M80.5,147l-7.05-.49,5.27,3.32-1.04,1.65-8.27-5.21,1.06-1.69,6.77.47-5.06-3.19,1.05-1.66,8.27,5.21-1,1.59Z"/>
    <path class="cls-1" d="M82.49,143.94l-8.08-5.51,3.16-4.63,1.42.97-2.05,3,1.85,1.26,1.99-2.92,1.41.96-1.99,2.92,1.99,1.36,2.05-3,1.42.97-3.16,4.63Z"/>
    <path class="cls-1" d="M84.63,136.27c.8-.08,1.66-.51,2.23-1.28.52-.71.41-1.37-.08-1.73-.6-.44-1.28-.07-2.12.43-1.12.71-2.5,1.6-4.06.46-1.24-.91-1.58-2.65-.39-4.28.7-.96,1.62-1.56,2.63-1.74l.63,1.62c-.8.14-1.45.59-1.88,1.18-.43.59-.36,1.19.11,1.53.53.39,1.18.03,2-.46,1.15-.72,2.58-1.58,4.14-.44,1.38,1.01,1.7,2.71.44,4.43-.88,1.19-1.91,1.78-2.99,1.95l-.64-1.67Z"/>
    <path class="cls-1" d="M89.01,130.37c.81-.05,1.68-.45,2.27-1.2.54-.69.45-1.36-.02-1.73-.59-.46-1.27-.11-2.13.36-1.14.67-2.55,1.51-4.07.31-1.21-.95-1.49-2.7-.24-4.29.74-.93,1.67-1.5,2.68-1.65l.57,1.64c-.8.12-1.47.54-1.92,1.11-.45.57-.4,1.17.06,1.54.52.41,1.18.07,2.01-.39,1.17-.68,2.63-1.49,4.15-.29,1.35,1.06,1.61,2.76.29,4.44-.92,1.16-1.97,1.71-3.06,1.84l-.59-1.69Z"/>
  </g>
  <g>
    <path class="cls-1" d="M99.87,105.51c1.82-1.81,4.42-1.36,6.46.69,2.06,2.06,2.49,4.65.68,6.46-1.81,1.8-4.39,1.36-6.45-.7-2.05-2.05-2.49-4.65-.69-6.46ZM101.11,106.74c-.94.94-.45,2.46.89,3.79,1.31,1.32,2.85,1.84,3.79.9.95-.95.45-2.5-.87-3.81-1.34-1.34-2.86-1.83-3.81-.87Z"/>
    <path class="cls-1" d="M110.41,109.07l-6.67-7.14,4.09-3.82,1.17,1.25-2.65,2.48,1.53,1.64,2.58-2.41,1.16,1.24-2.58,2.41,2.81,3.01-1.43,1.34Z"/>
    <path class="cls-1" d="M115.08,104.73l-6.48-7.32,4.19-3.71,1.14,1.28-2.72,2.41,1.49,1.68,2.64-2.34,1.13,1.27-2.64,2.34,2.73,3.08-1.47,1.3Z"/>
    <path class="cls-1" d="M117.94,98.49l-.97-1.14,2.35-1.99.97,1.14-2.35,1.99Z"/>
    <path class="cls-1" d="M122.98,97.88l-6.17-7.57,4.34-3.54,1.08,1.33-2.82,2.3,1.42,1.74,2.74-2.23,1.07,1.32-2.74,2.23,2.6,3.19-1.52,1.24Z"/>
    <path class="cls-1" d="M127.94,93.86l-5.99-7.73,1.55-1.2,4.93,6.36,2.6-2.01,1.06,1.37-4.15,3.21Z"/>
    <path class="cls-1" d="M137.17,86.93l-1.4-1.14-2.58,1.88.66,1.68-1.65,1.2-3.41-9.61,1.92-1.4,8.1,6.19-1.65,1.2ZM130.78,81.65l1.72,4.4,1.94-1.42-3.66-2.99Z"/>
    <path class="cls-1" d="M140.36,84.69l-7.91-6.42,1.75-1.2,5.83,5.04-2.6-7.25,1.76-1.21,3.12,9.7-1.96,1.34Z"/>
    <path class="cls-1" d="M142.52,71.33c2.16-1.38,4.61-.38,6.16,2.07,1.56,2.46,1.43,5.08-.74,6.46-2.15,1.37-4.59.38-6.15-2.08-1.56-2.45-1.43-5.08.72-6.45ZM143.46,72.81c-1.13.72-.97,2.3.05,3.9,1,1.57,2.38,2.41,3.51,1.69,1.14-.72.98-2.34-.02-3.91-1.01-1.59-2.4-2.4-3.53-1.68Z"/>
    <path class="cls-1" d="M147,68.72l1.71-1,3.24,5.54c.58,1,1.39,1.27,2.29.75.9-.53,1.05-1.36.47-2.36l-3.24-5.54,1.71-1,3.23,5.53c1.14,1.95.61,3.75-1.3,4.86-1.91,1.12-3.74.69-4.87-1.26l-3.23-5.53Z"/>
    <path class="cls-1" d="M163.08,70.87l-2.99-2.42-.93.5,1.67,3.13-1.73.93-4.61-8.62,3.22-1.72c1.58-.84,3.23-.27,4.08,1.32.79,1.49.41,2.66-.18,3.27l3.4,2.59-1.93,1.03ZM158.26,64.3l-1.23.66,1.33,2.48,1.23-.66c.67-.36.84-1.1.45-1.84-.41-.76-1.1-1.01-1.78-.65Z"/>
    <path class="cls-1" d="M164.82,67.04c.75.3,1.71.32,2.56-.1.79-.39,1-1.03.73-1.57-.33-.67-1.1-.65-2.07-.6-1.32.11-2.96.26-3.81-1.48-.68-1.38-.17-3.08,1.64-3.97,1.06-.52,2.15-.63,3.13-.33l-.2,1.73c-.77-.24-1.56-.15-2.21.17-.66.32-.87.88-.61,1.41.29.59,1.03.57,1.98.51,1.35-.11,3.02-.21,3.87,1.53.75,1.54.26,3.18-1.66,4.13-1.33.65-2.51.7-3.55.34l.2-1.78Z"/>
  </g>
  <g>
    <path class="cls-1" d="M46.62,265.92l-9.77-.2.07-3.6c.04-2.01,1.51-2.99,3.18-2.95,1.67.03,3.08,1.07,3.04,3.08l-.03,1.64,3.54.07-.04,1.96ZM38.64,262.39l-.03,1.41,2.81.06.03-1.41c.02-.75-.55-1.26-1.38-1.27-.85-.02-1.42.47-1.43,1.22Z"/>
    <path class="cls-1" d="M47.06,253.36l-1.77.36-.16,3.19,1.72.54-.1,2.03-9.61-3.4.12-2.37,9.91-2.4-.1,2.03ZM38.94,254.99l4.5,1.43.12-2.4-4.63.97Z"/>
    <path class="cls-1" d="M47.69,245.14l-6.49,2.79,6.2.53-.17,1.94-9.74-.84.17-1.98,6.23-2.68-5.96-.51.17-1.96,9.74.84-.16,1.87Z"/>
    <path class="cls-1" d="M48.05,241.48l-9.71-1.16.66-5.56,1.7.2-.43,3.61,2.23.27.42-3.51,1.69.2-.42,3.51,2.39.28.43-3.61,1.7.2-.66,5.56Z"/>
    <path class="cls-1" d="M48.94,234.27l-9.67-1.45.29-1.94,7.96,1.19.49-3.25,1.71.26-.78,5.19Z"/>
    <path class="cls-1" d="M50.92,222.39l-1.8.13-.58,3.14,1.63.76-.37,2-9.08-4.62.43-2.33,10.13-1.09-.37,2ZM42.66,222.96l4.28,2.01.43-2.36-4.71.35Z"/>
  </g>
  <g>
    <path class="cls-1" d="M29.14,274.32c-2.96.03-5.07-1.55-5.09-4.05-.02-1.9,1.19-2.81,2.31-3.32l.73,1.62c-.77.3-1.31.88-1.3,1.68.01,1.29,1.41,2.07,3.33,2.05,1.92-.02,3.3-.82,3.29-2.11,0-.83-.63-1.4-1.44-1.67l.69-1.63c1.18.47,2.47,1.35,2.49,3.29.02,2.5-2.06,4.12-5.01,4.15Z"/>
    <path class="cls-1" d="M34.05,260.34l-1.75.42-.06,3.19,1.74.49-.04,2.04-9.72-3.08.04-2.37,9.83-2.72-.04,2.04ZM25.98,262.24l4.55,1.28.04-2.4-4.59,1.12Z"/>
    <path class="cls-1" d="M34.35,252.83l-3.61,1.32-.05,1.05,3.54.17-.09,1.96-9.76-.47.17-3.64c.09-1.78,1.43-2.91,3.23-2.82,1.68.08,2.49,1.01,2.71,1.83l3.96-1.59-.1,2.18ZM26.24,253.6l-.07,1.39,2.81.13.07-1.39c.04-.76-.51-1.29-1.34-1.33-.86-.04-1.43.43-1.47,1.19Z"/>
    <path class="cls-1" d="M34.97,243.74l-1.77.32-.25,3.19,1.7.59-.16,2.03-9.52-3.66.19-2.37,9.97-2.13-.16,2.03ZM26.8,245.16l4.47,1.56.19-2.4-4.65.84Z"/>
    <path class="cls-1" d="M36.02,233.8l-6.67-.78,6.41,2.96-.09.8-6.92,1.38,6.67.78-.23,1.94-9.71-1.13.31-2.62,6.04-1.2-5.6-2.57.3-2.61,9.71,1.13-.22,1.92Z"/>
    <path class="cls-1" d="M36.52,230.14l-9.65-1.51.87-5.53,1.69.27-.56,3.59,2.21.35.55-3.49,1.68.26-.55,3.49,2.37.37.56-3.59,1.69.27-.87,5.53Z"/>
    <path class="cls-1" d="M37.67,223.06l-9.6-1.84.37-1.93,7.91,1.51.62-3.23,1.7.32-.99,5.16Z"/>
    <path class="cls-1" d="M39.75,214.28l-9.41-5.15.29-1.22,9.41,5.15-.29,1.22Z"/>
  </g>
  <g>
    <path class="cls-2" d="M419.31,44.32l.82-2.15-3.65-2.49-1.71,1.55-2.97-2.03,11.6-9.49,3.47,2.37-4.59,14.27-2.97-2.03ZM423.42,33.43l-4.69,4.16,2.53,1.72,2.16-5.88Z"/>
    <path class="cls-2" d="M424.49,44.7l2.95-4.04-1.06-.78,1.6-2.19,1.06.78,1.68-2.3,2.52,1.84-1.68,2.3,1.36.99-1.6,2.19-1.36-.99-2.49,3.41c-.36.49-.38.92,0,1.2.24.18.53.26.71.23l-.97,2.28c-.5.03-1.27-.2-2.08-.8-1.62-1.18-1.8-2.54-.64-4.13Z"/>
    <path class="cls-2" d="M429.71,48.55l3.04-3.97-1.04-.8,1.65-2.16,1.04.8,1.73-2.26,2.48,1.9-1.73,2.26,1.33,1.02-1.65,2.16-1.34-1.02-2.57,3.35c-.37.48-.4.91-.02,1.2.24.18.53.27.71.24l-1.02,2.26c-.5.02-1.26-.23-2.07-.85-1.59-1.22-1.74-2.58-.55-4.14Z"/>
    <path class="cls-2" d="M432.74,54.28l6.52-8.12,2.44,1.96-.84,1.04c.96-.33,2.36-.15,3.16.5l-1.89,2.35c-.11-.14-.27-.32-.47-.49-.59-.47-1.57-.73-2.29-.52l-4.2,5.23-2.44-1.96Z"/>
    <path class="cls-2" d="M437.83,58.4l6.67-7.99,2.4,2-6.67,7.99-2.4-2ZM446.33,47.86c.64-.76,1.77-.88,2.55-.23.76.64.85,1.78.21,2.54-.65.78-1.77.88-2.53.24-.78-.65-.88-1.77-.23-2.55Z"/>
    <path class="cls-2" d="M441.41,61.36l9.51-10.77,2.34,2.07-3.44,3.89c1.15-.36,2.2-.05,2.91.58,1.76,1.55,1.56,4.16-.67,6.68-2.31,2.62-4.82,3.05-6.56,1.51-.71-.63-1.11-1.61-.94-2.81l-.81.92-2.34-2.07ZM446.05,60.83c-.16.64.07,1.35.5,1.74.84.74,2.05.35,3.12-.87,1.05-1.19,1.3-2.45.46-3.19-.44-.39-1.19-.51-1.79-.29l-2.3,2.6Z"/>
    <path class="cls-2" d="M453.68,72.54l.86-.9c-.91.17-2.26-.07-3.27-1.03-1.45-1.38-1.29-2.8-.13-4.02l5.41-5.68,2.26,2.16-4.55,4.77c-.65.69-.59,1.25-.03,1.78.55.52,1.32.52,1.91.33l4.71-4.94,2.24,2.14-7.18,7.53-2.24-2.14Z"/>
    <path class="cls-2" d="M459.36,74.33l3.56-3.51-.92-.94,1.93-1.91.92.94,2.03-2,2.2,2.22-2.03,2,1.18,1.2-1.93,1.91-1.18-1.2-3.01,2.97c-.43.42-.52.85-.19,1.19.21.21.48.34.67.34l-1.33,2.09c-.5-.05-1.22-.4-1.93-1.13-1.41-1.43-1.37-2.8.03-4.18Z"/>
    <path class="cls-2" d="M472.23,76.2c2,2.15,1.51,4.95-.93,7.23l-.63.59-4.36-4.69c-.72.81-.89,1.98.09,3.04.51.55,1.34.93,2.12.94l-.43,2.29c-1.39-.03-2.78-.8-3.73-1.83-2.06-2.21-1.86-5.16.57-7.42,2.21-2.06,5.26-2.36,7.31-.15ZM467.82,77.89l2.35,2.52c.59-.6,1.11-1.62.23-2.57-.85-.92-1.92-.48-2.58.04Z"/>
    <path class="cls-2" d="M471.01,85.7c-.02.93.35,2.27,1.01,3.04.57.65,1.09.76,1.48.42.39-.34.15-.98-.27-1.82-.67-1.39-1.65-3.31.24-4.95,1.32-1.15,3.39-1.09,5.13.91.99,1.14,1.46,2.5,1.53,3.76l-2.37.46c.05-.73-.22-1.83-.93-2.65-.44-.5-.96-.68-1.3-.38-.36.31-.15.88.26,1.71.7,1.42,1.7,3.43-.23,5.12-1.48,1.29-3.61.97-5.3-.97-1.17-1.35-1.76-2.95-1.68-4.2l2.43-.46Z"/>
  </g>
  <g>
    <path class="cls-2" d="M450.77,34.77c2.81-3.38,6.62-4.17,9.57-1.72,2.39,1.98,2.15,4.39,1.55,6.19l-2.99-.88c.43-1.1.34-2.2-.53-2.93-1.31-1.09-3.26-.32-4.87,1.62-1.61,1.94-2,4-.69,5.08.9.74,2.09.56,3.08-.13l1.44,2.79c-1.64.93-4.08,1.71-6.48-.28-2.95-2.45-2.87-6.36-.08-9.72Z"/>
    <path class="cls-2" d="M458.73,43.95c1.94-2.16,4.91-2.92,7.31-.76,2.41,2.16,1.99,5.2.05,7.37-1.94,2.16-4.94,2.92-7.35.76-2.4-2.16-1.96-5.2-.01-7.37ZM463.7,48.42c1.01-1.12,1.4-2.36.5-3.17-.88-.79-2.07-.27-3.08.85-1.02,1.14-1.41,2.38-.53,3.17.9.81,2.09.28,3.11-.85Z"/>
    <path class="cls-2" d="M463.32,55.16l7.19-7.53,2.26,2.16-.92.97c.99-.25,2.36.05,3.11.77l-2.08,2.18c-.1-.15-.24-.34-.42-.52-.55-.52-1.5-.86-2.24-.71l-4.63,4.85-2.26-2.16Z"/>
    <path class="cls-2" d="M478.79,55.36c2.06,2.09,1.66,4.9-.72,7.25l-.61.6-4.49-4.56c-.69.83-.84,2.01.18,3.04.53.54,1.37.89,2.14.88l-.37,2.3c-1.39,0-2.8-.72-3.78-1.72-2.12-2.15-2.01-5.1.36-7.44,2.15-2.12,5.18-2.51,7.3-.36ZM474.43,57.17l2.42,2.46c.57-.62,1.06-1.65.15-2.57-.88-.89-1.93-.42-2.58.12Z"/>
  </g>
  <circle class="cls-2" cx="407.84" cy="46.1" r="5.35"/>
  <circle class="cls-7" cx="39.53" cy="397.41" r="5.35"/>
  <line class="cls-3" x1="266.46" y1="7.8" x2="266.8" y2="266.65"/>
  <line class="cls-3" x1="161.23" y1="30" x2="266.8" y2="266.65"/>
  <line class="cls-3" x1="74.24" y1="93.28" x2="266.8" y2="266.65"/>
  <line class="cls-3" x1="20.4" y1="186.42" x2="266.8" y2="266.65"/>
  <line class="cls-3" x1="9.21" y1="293.42" x2="266.8" y2="266.65"/>
  <line class="cls-3" x1="42.45" y1="395.73" x2="266.8" y2="266.65"/>
  <line class="cls-3" x1="114.45" y1="475.64" x2="266.8" y2="266.65"/>
  <line class="cls-3" x1="212.71" y1="519.41" x2="266.8" y2="266.65"/>
  <line class="cls-3" x1="320.27" y1="519.39" x2="266.8" y2="266.65"/>
  <line class="cls-3" x1="418.51" y1="475.61" x2="266.8" y2="266.65"/>
  <line class="cls-3" x1="490.49" y1="395.7" x2="266.8" y2="266.65"/>
  <line class="cls-3" x1="523.78" y1="292.79" x2="266.8" y2="266.65"/>
  <line class="cls-3" x1="511.47" y1="186.78" x2="266.8" y2="266.65"/>
  <line class="cls-3" x1="458.74" y1="93.28" x2="266.8" y2="266.65"/>
  <line class="cls-3" x1="371.73" y1="30" x2="266.8" y2="266.65"/>
  <circle class="cls-3" cx="266.4" cy="266.4" r="205.25"/>
  <circle class="cls-3" cx="266.4" cy="266.4" r="154.18"/>
  <circle class="cls-3" cx="266.4" cy="266.4" r="102.64"/>
  <circle class="cls-3" cx="266.4" cy="266.4" r="51.41"/>
  <g>
    <path class="cls-6" d="M262.3,13.9V4.58l-1.71,1.82-.8-.83,2.65-2.74h1.16v11.06h-1.31Z"/>
    <path class="cls-6" d="M269.01,2.68c2.59,0,3.47,2.87,3.47,5.71s-.88,5.72-3.47,5.72-3.47-2.89-3.47-5.72.88-5.71,3.47-5.71ZM269.01,3.85c-1.69,0-2.11,2.34-2.11,4.53s.4,4.54,2.11,4.54,2.12-2.37,2.12-4.54-.41-4.53-2.12-4.53Z"/>
  </g>
  <g>
    <path class="cls-1" d="M262.3,13.9V4.58l-1.71,1.82-.8-.83,2.65-2.74h1.16v11.06h-1.31Z"/>
    <path class="cls-1" d="M269.01,2.68c2.59,0,3.47,2.87,3.47,5.71s-.88,5.72-3.47,5.72-3.47-2.89-3.47-5.72.88-5.71,3.47-5.71ZM269.01,3.85c-1.69,0-2.11,2.34-2.11,4.53s.4,4.54,2.11,4.54,2.12-2.37,2.12-4.54-.41-4.53-2.12-4.53Z"/>
  </g>
  <path class="cls-6" d="M265.32,60.04c-1.01-.36-2.04-1.29-2.04-2.7,0-1.92,1.53-2.82,3.12-2.82s3.13.9,3.13,2.82c0,1.41-1.04,2.34-2.04,2.7,1.08.41,2.19,1.51,2.19,2.97,0,1.82-1.36,2.94-3.28,2.94s-3.28-1.11-3.28-2.92c0-1.48,1.11-2.57,2.21-2.98ZM266.4,60.59c-.46.07-1.94.81-1.94,2.29,0,1.19.86,1.89,1.94,1.89s1.96-.7,1.96-1.91c0-1.46-1.49-2.21-1.96-2.27ZM266.4,55.7c-1.08,0-1.81.7-1.81,1.81,0,1.36,1.38,1.94,1.81,2.04.43-.1,1.81-.68,1.81-2.04,0-1.11-.73-1.81-1.81-1.81Z"/>
  <path class="cls-1" d="M265.32,60.04c-1.01-.36-2.04-1.29-2.04-2.7,0-1.92,1.53-2.82,3.12-2.82s3.13.9,3.13,2.82c0,1.41-1.04,2.34-2.04,2.7,1.08.41,2.19,1.51,2.19,2.97,0,1.82-1.36,2.94-3.28,2.94s-3.28-1.11-3.28-2.92c0-1.48,1.11-2.57,2.21-2.98ZM266.4,60.59c-.46.07-1.94.81-1.94,2.29,0,1.19.86,1.89,1.94,1.89s1.96-.7,1.96-1.91c0-1.46-1.49-2.21-1.96-2.27ZM266.4,55.7c-1.08,0-1.81.7-1.81,1.81,0,1.36,1.38,1.94,1.81,2.04.43-.1,1.81-.68,1.81-2.04,0-1.11-.73-1.81-1.81-1.81Z"/>
  <path class="cls-6" d="M266.83,105.33c1.16,0,2.04.55,2.59,1.38l-.73.93c-.41-.7-.93-1.13-1.84-1.13-1.76,0-2.42,2.32-2.42,4.41,0,.15,0,.2.02.33.38-.78,1.29-1.62,2.44-1.62,1.61,0,2.9,1.18,2.9,3.53,0,1.87-1.14,3.6-3.18,3.6-2.64,0-3.5-2.77-3.5-5.72s1.06-5.71,3.73-5.71ZM266.55,110.77c-.93,0-1.67.8-2.09,1.69.08,1.24.51,3.12,2.07,3.12,1.33,0,1.91-1.24,1.91-2.39,0-1.76-.85-2.42-1.89-2.42Z"/>
  <path class="cls-1" d="M266.83,105.33c1.16,0,2.04.55,2.59,1.38l-.73.93c-.41-.7-.93-1.13-1.84-1.13-1.76,0-2.42,2.32-2.42,4.41,0,.15,0,.2.02.33.38-.78,1.29-1.62,2.44-1.62,1.61,0,2.9,1.18,2.9,3.53,0,1.87-1.14,3.6-3.18,3.6-2.64,0-3.5-2.77-3.5-5.72s1.06-5.71,3.73-5.71ZM266.55,110.77c-.93,0-1.67.8-2.09,1.69.08,1.24.51,3.12,2.07,3.12,1.33,0,1.91-1.24,1.91-2.39,0-1.76-.85-2.42-1.89-2.42Z"/>
  <path class="cls-6" d="M267.33,168.8v-2.84h-4.38v-1.14l4-7.08h1.69v7.06h1.21v1.16h-1.21v2.84h-1.31ZM267.33,159.17l-3.17,5.64h3.17v-5.64Z"/>
  <path class="cls-1" d="M267.33,168.8v-2.84h-4.38v-1.14l4-7.08h1.69v7.06h1.21v1.16h-1.21v2.84h-1.31ZM267.33,159.17l-3.17,5.64h3.17v-5.64Z"/>
  <path class="cls-6" d="M263.22,219.55v-1.08c3.62-4.16,4.86-5.51,4.86-7.11,0-1.19-.83-1.86-1.77-1.86-1.05,0-1.81.51-2.34,1.39l-.86-.8c.73-1.13,1.81-1.77,3.22-1.77,1.69,0,3.1,1.09,3.1,3.02s-1.39,3.52-4.33,7.03h4.38v1.18h-6.25Z"/>
  <path class="cls-1" d="M263.22,219.55v-1.08c3.62-4.16,4.86-5.51,4.86-7.11,0-1.19-.83-1.86-1.77-1.86-1.05,0-1.81.51-2.34,1.39l-.86-.8c.73-1.13,1.81-1.77,3.22-1.77,1.69,0,3.1,1.09,3.1,3.02s-1.39,3.52-4.33,7.03h4.38v1.18h-6.25Z"/>
  <g>
    <path class="cls-2" d="M256.69,7.77c0-.82.11-1.62.29-2.39-33.62,1.19-66.13,8.67-96.77,22.33l2.04,4.57c30.01-13.38,61.86-20.72,94.79-21.9-.22-.84-.35-1.71-.35-2.62Z"/>
    <path class="cls-2" d="M451.12,81.69C404.2,34.76,342.57,7.92,276.62,5.41c.18.76.29,1.55.29,2.36,0,.92-.13,1.8-.36,2.65,136.58,5.32,246.06,118.07,246.06,255.93,0,8.74-.44,17.55-1.32,26.19l4.98.51c.89-8.81,1.35-17.79,1.35-26.7,0-69.76-27.17-135.34-76.49-184.66Z"/>
  </g>
  <path class="cls-4" d="M74.24,93.28c24.09-26.74,53.68-48.42,86.99-63.28"/>
  <path class="cls-5" d="M523.78,292.79c-13.25,130.43-123.39,232.21-257.32,232.21C123.61,525,7.81,409.2,7.81,266.35c0-66.55,25.14-127.24,66.43-173.07"/>
</svg>